<?xml version="1.0" encoding="utf-8"?>
<!-- Generator: Adobe Illustrator 22.0.0, SVG Export Plug-In . SVG Version: 6.00 Build 0)  -->
<svg version="1.1" id="图层_1" xmlns="http://www.w3.org/2000/svg" xmlns:xlink="http://www.w3.org/1999/xlink" x="0px" y="0px"
	 viewBox="0 0 1024 1024" style="enable-background:new 0 0 1024 1024;" xml:space="preserve">
<style type="text/css">
	.st0{fill:#FFFFFF;}
	.st1{fill:#BCBCBC;}
	.st2{fill:#DEDEDE;}
</style>
<g>
	<g>
		<g>
			<path class="st0" d="M215.1,957.4c-21.9,0-39.8-17.8-39.8-39.8V106.4c0-21.9,17.8-39.8,39.8-39.8h460.2l173.4,173.4v677.5
				c0,21.9-17.8,39.8-39.8,39.8H215.1z"/>
			<path class="st1" d="M674.2,69.3L846,241.2v676.4c0,20.5-16.6,37.1-37.1,37.1H215.1c-20.5,0-37.1-16.6-37.1-37.1V106.4
				c0-20.5,16.6-37.1,37.1-37.1H674.2 M676.4,64H215.1c-23.4,0-42.4,19-42.4,42.4v811.2c0,23.4,19,42.4,42.4,42.4h593.8
				c23.4,0,42.4-19,42.4-42.4V239L676.4,64L676.4,64z"/>
		</g>
		<g>
			<path class="st2" d="M718.8,236.3c-21.9,0-39.8-17.8-39.8-39.8V70.4l165.9,165.9H718.8z"/>
			<g>
				<path class="st1" d="M681.7,76.8l156.9,156.9H718.8c-20.5,0-37.1-16.6-37.1-37.1V76.8 M676.4,64v132.5c0,23.4,19,42.4,42.4,42.4
					h132.5L676.4,64L676.4,64z"/>
			</g>
		</g>
	</g>
	<path class="st2" d="M746.2,692H277.8c-5.9,0-10.6-4.7-10.6-10.6s4.7-10.6,10.6-10.6h468.3c5.9,0,10.6,4.7,10.6,10.6
		S752,692,746.2,692z"/>
	<path class="st2" d="M746.2,776.2H277.8c-5.9,0-10.6-4.7-10.6-10.6S272,755,277.8,755h468.3c5.9,0,10.6,4.7,10.6,10.6
		S752,776.2,746.2,776.2z"/>
	<path class="st2" d="M534.1,860.4H277.8c-5.9,0-10.6-4.7-10.6-10.6s4.7-10.6,10.6-10.6h256.3c5.9,0,10.6,4.7,10.6,10.6
		S539.9,860.4,534.1,860.4z"/>
	<g>
		<rect x="277.8" y="360" class="st2" width="53" height="212.1"/>
		<rect x="554.7" y="423.7" class="st2" width="53" height="148.4"/>
		<rect x="416.3" y="254" class="st2" width="53" height="318.1"/>
		<rect x="693.1" y="338.8" class="st2" width="53" height="233.3"/>
	</g>
</g>
</svg>
